<?xml version="1.0" standalone="no"?>
<!DOCTYPE svg PUBLIC "-//W3C//DTD SVG 20010904//EN"
 "http://www.w3.org/TR/2001/REC-SVG-20010904/DTD/svg10.dtd">
<svg version="1.0" xmlns="http://www.w3.org/2000/svg"
 width="260.000000pt" height="260.000000pt" viewBox="0 0 260.000000 260.000000"
 preserveAspectRatio="xMidYMid meet">
<metadata>
Created by potrace 1.11, written by Peter Selinger 2001-2013
</metadata>
<g transform="translate(0.000000,260.000000) scale(0.100000,-0.100000)"
fill="#000000" stroke="none">
<path d="M0 1300 l0 -1300 1300 0 1300 0 0 1300 0 1300 -1300 0 -1300 0 0
-1300z m1530 1076 c212 -242 368 -643 420 -1075 9 -76 8 -96 -2 -102 -7 -5
-56 -18 -108 -29 -145 -33 -195 -48 -221 -69 l-24 -19 160 -77 c318 -153 422
-198 548 -239 109 -35 129 -44 134 -64 9 -38 -62 -167 -132 -240 l-61 -62
-150 81 c-216 118 -588 301 -698 344 -111 43 -189 65 -233 65 -43 0 -73 -39
-73 -96 0 -80 65 -253 143 -378 13 -21 22 -47 20 -57 -6 -23 -96 -70 -228
-119 -110 -42 -122 -45 -142 -32 -7 4 -46 122 -87 262 -194 666 -414 1262
-539 1463 -64 102 -62 106 76 141 163 41 534 164 827 273 140 52 262 99 270
103 19 11 39 -4 100 -74z"/>
<path d="M1325 2053 c-124 -30 -602 -206 -627 -231 -16 -16 -15 -21 18 -95 20
-43 60 -159 90 -258 50 -167 91 -270 113 -283 5 -4 63 18 128 47 65 30 206 82
313 116 201 65 255 89 265 120 3 10 -17 90 -44 177 -120 381 -152 432 -256
407z"/>
</g>
</svg>
